# xmcd CD database file
#
# Track frame offsets:
#	150
#	11570
#	26225
#	43685
#	54535
#	72117
#	84807
#	109097
#	125887
#	152860
#	177242
#	204517
#	230727
#
# Disc length: 3377 seconds
#
# Revision: 2
# Processed by: cddbd v1.5.2PL0 Copyright (c) Steve Scherf et al.
# Submitted via: CDex 1.51
#
DISCID=b00d2f0d
DTITLE=The Chuck Rainey Coalition - The Chuck Rainey Coalition
DYEAR=1971
DGENRE=Blues
TTITLE0=Eloise (First Love)
TTITLE1=How Long Will It Last
TTITLE2=Genuine John (Colors)
TTITLE3=Rain Song
TTITLE4=Got It Together
TTITLE5=Lone Stranger
TTITLE6=Harlem Nocturne - Zenzile
TTITLE7=It's Gonna Rain
TTITLE8=Peter Gunn Theme
TTITLE9=A Taste Of Honey
TTITLE10=Think Twice
TTITLE11=When The Saints Go Marching In
TTITLE12=Josie
EXTD=YEAR: 1971
EXTT0=
EXTT1=
EXTT2=
EXTT3=
EXTT4=
EXTT5=
EXTT6=
EXTT7=
EXTT8=
EXTT9=
EXTT10=
EXTT11=
EXTT12=
PLAYORDER=
